<?xml version="1.0" encoding="UTF-8" standalone="no"?>
<!-- Created with Inkscape (http://www.inkscape.org/) -->

<svg
   width="210mm"
   height="210mm"
   viewBox="0 0 210 210"
   version="1.1"
   id="svg5"
   sodipodi:docname="drawing.svg"
   inkscape:version="1.2 (dc2aedaf03, 2022-05-15)"
   xmlns:inkscape="http://www.inkscape.org/namespaces/inkscape"
   xmlns:sodipodi="http://sodipodi.sourceforge.net/DTD/sodipodi-0.dtd"
   xmlns="http://www.w3.org/2000/svg"
   xmlns:svg="http://www.w3.org/2000/svg">
  <sodipodi:namedview
     id="namedview7"
     pagecolor="#ffffff"
     bordercolor="#000000"
     borderopacity="0.25"
     inkscape:showpageshadow="2"
     inkscape:pageopacity="0.0"
     inkscape:pagecheckerboard="0"
     inkscape:deskcolor="#d1d1d1"
     inkscape:document-units="mm"
     showgrid="false"
     inkscape:zoom="0.914906"
     inkscape:cx="396.76207"
     inkscape:cy="560.71334"
     inkscape:window-width="2560"
     inkscape:window-height="1385"
     inkscape:window-x="0"
     inkscape:window-y="24"
     inkscape:window-maximized="1"
     inkscape:current-layer="layer1" />
  <defs
     id="defs2" />
  <g
     inkscape:label="Layer 1"
     inkscape:groupmode="layer"
     id="layer1">
    <path
       style="fill:#000000;stroke-width:0.264583"
       d="m 44.072841,120.76649 c 0,0 -4.012205,-13.85036 10.399853,-38.812777 C 68.884754,56.991294 131.98715,54.599421 131.98715,54.599421 V 31.926776 L 168.541,65.241675 134.99475,89.30243 134.30069,74.495815 c 0,0 -26.12625,-1.85194 -38.218921,10.240727 C 83.989102,96.829209 80.395325,120.3038 80.395325,120.3038 Z"
       id="path63" />
    <path
       style="fill:#ff0000;stroke-width:1.09301"
       d="m 166.44412,454.04868 c -1.61353,-3.95124 -0.79567,-33.30905 1.24574,-44.71701 4.42568,-24.73193 14.82575,-53.67431 29.49144,-82.07179 9.69351,-18.76975 14.52703,-26.16818 23.04569,-35.27496 29.06234,-31.06872 83.71951,-54.81464 162.52872,-70.61092 29.03856,-5.82041 70.63033,-11.44327 97.075,-13.12376 5.71097,-0.36291 12.46821,-0.91677 15.01609,-1.2308 l 4.63251,-0.57095 0.28603,-41.89445 0.28603,-41.89444 67.54403,61.57797 c 37.14923,33.86788 67.42265,61.97192 67.27428,62.45341 -0.14837,0.48149 -12.34459,9.51229 -27.10272,20.06845 -14.75813,10.55615 -42.62953,30.53405 -61.93643,44.39531 l -35.10346,25.2023 -0.70691,-15.43059 c -0.38879,-8.48682 -1.01753,-21.03389 -1.39721,-27.88238 l -0.69032,-12.4518 -23.61478,0.64022 c -25.80357,0.69955 -39.63385,2.40044 -59.68406,7.34009 -37.87753,9.33166 -60.23784,24.2088 -79.36532,52.80469 -16.84317,25.18082 -33.14702,67.0993 -39.92694,102.65535 l -2.03168,10.65478 -26.23221,0.003 c -14.42771,0.002 -45.03049,0.32846 -68.00619,0.72548 -40.46501,0.69924 -41.80073,0.65639 -42.62733,-1.36781 z"
       id="path298"
       transform="scale(0.26458333)" />
  </g>
</svg>
